<?xml version="1.0" encoding="UTF-8"?>
<svg version="1.1" xmlns="http://www.w3.org/2000/svg" width="512" height="512">
<path d="M0 0 C1.50566537 -0.00573832 1.50566537 -0.00573832 3.04174823 -0.01159257 C6.38544554 -0.02186269 9.72896921 -0.01794179 13.07267761 -0.01396179 C15.47815102 -0.0183116 17.88362304 -0.02349564 20.28909302 -0.02944946 C26.13330732 -0.0414349 31.97746811 -0.04399425 37.82169322 -0.0416492 C42.57538538 -0.03986201 47.32906363 -0.04162426 52.08275414 -0.04587364 C53.09983631 -0.04676643 53.09983631 -0.04676643 54.13746559 -0.04767724 C55.51520501 -0.04888907 56.89294443 -0.05010321 58.27068385 -0.05131962 C71.17582014 -0.06218266 84.08093027 -0.06003866 96.98606803 -0.05393478 C108.77236635 -0.04876795 120.55858196 -0.06001707 132.34486393 -0.07903299 C144.46798765 -0.09844132 156.5910723 -0.10666208 168.71421164 -0.10290974 C175.51199452 -0.10100208 182.30970704 -0.10344261 189.10747719 -0.11762428 C195.50235423 -0.13022459 201.89706611 -0.1282375 208.29194069 -0.11521339 C210.63317929 -0.11285281 212.97442958 -0.11556362 215.31565475 -0.12383652 C236.85589977 -0.19443671 254.43254064 2.64106222 270.64787292 17.98139954 C281.98950552 29.34056171 288.82378238 44.78453144 288.93149644 60.80506927 C288.92771712 61.72784154 288.92393779 62.65061381 288.92004395 63.60134888 C288.92386949 64.60512579 288.92769504 65.60890271 288.93163651 66.6430971 C288.94190663 69.98679442 288.93798574 73.33031809 288.93400574 76.67402649 C288.93835554 79.0794999 288.94353959 81.48497192 288.94949341 83.89044189 C288.96147885 89.7346562 288.9640382 95.57881699 288.96169315 101.4230421 C288.95990596 106.17673426 288.9616682 110.93041251 288.96591759 115.68410301 C288.96651278 116.36215779 288.96710797 117.04021257 288.96772119 117.73881447 C288.96893302 119.11655389 288.97014715 120.49429331 288.97136357 121.87203272 C288.98222661 134.77716902 288.9800826 147.68227915 288.97397872 160.58741691 C288.96881189 172.37371523 288.98006101 184.15993084 288.99907694 195.94621281 C289.01848526 208.06933652 289.02670602 220.19242117 289.02295369 232.31556052 C289.02104602 239.1133434 289.02348656 245.91105592 289.03766823 252.70882607 C289.05026854 259.1037031 289.04828144 265.49841498 289.03525734 271.89328957 C289.03289676 274.23452816 289.03560756 276.57577846 289.04388046 278.91700363 C289.11448066 300.45724865 286.27898173 318.03388951 270.93864441 334.2492218 C259.57948224 345.5908544 244.1355125 352.42513126 228.11497468 352.53284532 C227.19220241 352.52906599 226.26943014 352.52528667 225.31869507 352.52139282 C224.31491815 352.52521837 223.31114124 352.52904392 222.27694684 352.53298539 C218.93324953 352.54325551 215.58972586 352.53933462 212.24601746 352.53535461 C209.84054405 352.53970442 207.43507202 352.54488847 205.02960205 352.55084229 C199.18538775 352.56282773 193.34122695 352.56538707 187.49700185 352.56304202 C182.74330969 352.56125483 177.98963143 352.56301708 173.23594093 352.56726646 C172.21885876 352.56815925 172.21885876 352.56815925 171.18122948 352.56907007 C169.80349006 352.57028189 168.42575064 352.57149603 167.04801122 352.57271244 C154.14287493 352.58357549 141.23776479 352.58143148 128.33262704 352.5753276 C116.54632872 352.57016077 104.7601131 352.58140989 92.97383114 352.60042582 C80.85070742 352.61983414 68.72762277 352.6280549 56.60448343 352.62430257 C49.80670055 352.6223949 43.00898803 352.62483543 36.21121788 352.63901711 C29.81634084 352.65161741 23.42162896 352.64963032 17.02675438 352.63660622 C14.68551578 352.63424564 12.34426548 352.63695644 10.00304031 352.64522934 C-11.5372047 352.71582953 -29.11384557 349.88033061 -45.32917786 334.53999329 C-56.68189673 323.16972771 -63.4986686 307.72660421 -63.61746347 291.69481254 C-63.61436627 290.76883144 -63.61126906 289.84285034 -63.608078 288.8888092 C-63.61260912 287.8816543 -63.61714023 286.8744994 -63.62180865 285.83682466 C-63.63440988 282.48164855 -63.63283503 279.12663566 -63.63117981 275.7714386 C-63.63716772 273.35773511 -63.64397387 270.94403354 -63.65153503 268.53033447 C-63.66734507 262.66573897 -63.67364225 256.80118136 -63.67475979 250.93656889 C-63.67571269 246.16572225 -63.67983502 241.39488879 -63.68616104 236.62404633 C-63.70375943 223.07469707 -63.7130021 209.5253794 -63.71150009 195.97601864 C-63.71142018 195.24673476 -63.71134027 194.51745089 -63.71125793 193.7660675 C-63.71117617 193.03588521 -63.71109441 192.30570291 -63.71101017 191.55339387 C-63.71019765 179.72571695 -63.72933044 167.89816748 -63.75753467 156.0705274 C-63.78631789 143.90332713 -63.80007198 131.73618891 -63.79834712 119.56895375 C-63.79768509 112.7470786 -63.80309463 105.92533708 -63.82470322 99.10349274 C-63.84490577 92.68480205 -63.84418594 86.26632009 -63.82966995 79.84761238 C-63.82758511 77.49872741 -63.83226326 75.14982466 -63.84439087 72.80097008 C-63.95413079 50.06497567 -63.95413079 50.06497567 -59.34065247 39.26069641 C-58.8340509 38.04253235 -58.32744934 36.82436829 -57.80549622 35.56929016 C-49.25960151 19.50475663 -36.5911558 8.46808777 -19.34065247 2.26069641 C-12.84968579 0.43815897 -6.71757447 -0.02751263 0 0 Z M173.65934753 101.26069641 C169.43348185 106.62868796 168.54037191 110.96674932 168.51890564 117.66078186 C168.5131955 118.73166046 168.50748535 119.80253906 168.50160217 120.90586853 C168.50048431 122.07064728 168.49936646 123.23542603 168.49821472 124.4355011 C168.49324982 125.67023163 168.48828491 126.90496216 168.48316956 128.17710876 C168.47108338 131.55749027 168.4636086 134.9378101 168.4591589 138.31820583 C168.45622131 140.43345083 168.45211521 142.5486905 168.44765472 144.6639328 C168.4339902 151.29168126 168.42431862 157.91941742 168.42045283 164.54717898 C168.41597549 172.18000523 168.39843834 179.81265211 168.36945224 187.44542384 C168.3477861 193.35729736 168.33774592 199.2691206 168.33641171 205.18103337 C168.33536714 208.70638391 168.3295341 212.23156559 168.3115921 215.75687408 C168.29194257 219.69407854 168.29642002 223.63106143 168.30290222 227.5683136 C168.29368744 228.72499542 168.28447266 229.88167725 168.27497864 231.07341003 C168.31941849 241.7001615 168.31941849 241.7001615 173.11132431 250.87908554 C177.85028004 254.94446793 181.0573973 255.61666551 187.12028503 255.53804016 C190.88395156 255.12693197 192.87724941 253.77783281 195.65934753 251.26069641 C199.88521322 245.89270486 200.77832316 241.5546435 200.79978943 234.86061096 C200.80549957 233.78973236 200.81120972 232.71885376 200.8170929 231.61552429 C200.81821075 230.45074554 200.81932861 229.2859668 200.82048035 228.08589172 C200.82544525 226.85116119 200.83041016 225.61643066 200.83552551 224.34428406 C200.84761169 220.96390255 200.85508647 217.58358273 200.85953617 214.20318699 C200.86247376 212.08794199 200.86657986 209.97270232 200.87104034 207.85746002 C200.88470487 201.22971156 200.89437645 194.6019754 200.89824224 187.97421384 C200.90271958 180.34138759 200.92025673 172.70874071 200.94924283 165.07596898 C200.97090897 159.16409546 200.98094915 153.25227222 200.98228335 147.34035945 C200.98332792 143.81500891 200.98916097 140.28982723 201.00710297 136.76451874 C201.0267525 132.82731428 201.02227505 128.89033139 201.01579285 124.95307922 C201.02500763 123.7963974 201.03422241 122.63971558 201.04371643 121.44798279 C200.99927658 110.82123133 200.99927658 110.82123133 196.20737076 101.64230728 C191.46841502 97.57692489 188.26129777 96.90472732 182.19841003 96.98335266 C178.43474351 97.39446085 176.44144566 98.74356001 173.65934753 101.26069641 Z M38.65934753 113.26069641 C38.04446472 113.77374329 37.42958191 114.28679016 36.79606628 114.81538391 C28.31394041 122.40752227 25.99128349 132.34612456 24.65934753 143.26069641 C24.38979034 148.32369598 24.37660498 153.37952675 24.39372253 158.44819641 C24.3923704 159.88203497 24.39042534 161.31587307 24.38792419 162.74971008 C24.38499867 165.73486251 24.38918671 168.71989413 24.39860535 171.70503235 C24.40999837 175.49707664 24.40342495 179.28883763 24.39146042 183.08087158 C24.38417168 186.03574184 24.3865616 188.9905469 24.391716 191.94541931 C24.3930332 193.34220922 24.39147401 194.7390054 24.3867569 196.13578796 C24.34501974 211.96035536 25.64696875 226.15841449 36.90934753 238.19819641 C45.21335437 245.90208175 55.59568448 249.91541395 66.91325378 249.55366516 C78.75139009 248.2907061 87.21279593 242.70912965 96.52067566 235.83882141 C98.69595721 234.23368215 100.88595195 232.65086677 103.08122253 231.07319641 C106.09924104 228.90335138 109.10998035 226.72395115 112.11637878 224.53804016 C115.90347044 221.7930725 119.72811026 219.10627097 123.5665741 216.43379211 C136.01711677 207.74280895 147.691029 199.20620919 150.65934753 183.26069641 C151.81068564 171.29246578 149.53993889 161.24794052 142.51872253 151.42866516 C135.57436215 143.33177438 125.8948921 137.50141765 117.19841003 131.44429016 C113.34915872 128.75847547 109.5492363 126.0105278 105.75944519 123.24165344 C85.34556111 108.35280778 61.7209341 92.18454445 38.65934753 113.26069641 Z " fill="#B08DFF" transform="translate(143.3406524658203,79.73930358886719)"/>
<path d="M0 0 C2.60423099 1.47003537 4.86142778 2.9258457 7.25 4.6875 C7.93819824 5.17790771 8.62639648 5.66831543 9.33544922 6.17358398 C11.56702369 7.76889138 13.78354244 9.38377329 16 11 C17.51742728 12.09226072 19.03565985 13.18340354 20.5546875 14.2734375 C23.58982712 16.4547214 26.61776446 18.64548531 29.640625 20.84375 C32.450072 22.88426952 35.27111534 24.90600505 38.109375 26.90625 C38.7472998 27.35669678 39.38522461 27.80714355 40.04248047 28.27124023 C41.22155824 29.10206122 42.40271522 29.92994337 43.58642578 30.75415039 C51.66585356 36.45778566 51.66585356 36.45778566 52.8125 41.75 C52.55313519 45.46983735 51.37575155 47.15454585 48.6875 49.6875 C43.19461393 54.10080941 37.29381359 57.99457044 31.44848633 61.92260742 C25.95470485 65.61883259 20.63228248 69.475915 15.375 73.5 C1.51276416 84 1.51276416 84 -4.875 84 C-9.14663132 82.63307798 -9.14663132 82.63307798 -11 80 C-11.30623875 77.5005312 -11.43048979 75.24744701 -11.41992188 72.74633789 C-11.42839142 72.01105362 -11.43686096 71.27576935 -11.44558716 70.51820374 C-11.4689976 68.08617891 -11.4699784 65.65478525 -11.46875 63.22265625 C-11.47584924 61.5325851 -11.48354789 59.84251637 -11.49182129 58.15245056 C-11.50527542 54.60913393 -11.50683077 51.06604013 -11.50097656 47.52270508 C-11.49507992 42.98157733 -11.52566524 38.44151852 -11.56609344 33.90059757 C-11.59194171 30.40984841 -11.59485051 26.9193576 -11.59120178 23.42852592 C-11.59289579 21.75436148 -11.60256533 20.08018546 -11.62034607 18.40611458 C-11.64248051 16.06436752 -11.6328649 13.72479617 -11.61523438 11.38305664 C-11.62849762 10.69149475 -11.64176086 9.99993286 -11.65542603 9.28741455 C-11.59131106 5.62292446 -11.23382274 4.24053739 -8.64025879 1.57249451 C-5.3206031 -0.40463756 -3.81193114 -0.6590279 0 0 Z " fill="#BA91FF" transform="translate(211,214)"/>
</svg>
